#!OML:ASF I:\Actors\actors\Patient Classification 1\Patient 1\Session 1\Subject1.ASF
:FULLY-SPECIFIED
:DEGREES
458
root 1.25493 17.4437 9.74751 8.59906 2.84402 -7.37241
lowerback -3.72768 1.38177 5.17721
upperback -7.94071 1.95623 1.75882
thorax -6.08508 0.735795 -1.08639
lowerneck -8.24106 -4.76454 -2.51692
upperneck 19.3211 -7.72262 7.59207
head 7.69909 -3.20267 2.19354
rclavicle 2.41275e-014 4.35338e-014
rhumerus -40.0936 36.3264 -99.5011
rradius 129.624
rwrist -63.186
rhand -7.66773 -64.4589
rfingers 7.12502
rthumb 18.2285 -266.375
lclavicle 2.41275e-014 4.35338e-014
lhumerus -53.2632 17.7521 75.0079
lradius 89.2735
lwrist 20.7342
lhand -32.7919 -4.3079
lfingers 7.12502
lthumb -6.01331 25.5868
rfemur -2.57011 21.9312 22.8666
rtibia 6.11206
rfoot -16.422 -27.8898
rtoes 3.16881
lfemur 6.56187 -41.6953 -16.58
ltibia -5.31489
lfoot -16.1786 47.1637
ltoes 7.78235
459
root 1.26592 17.4424 9.73269 8.49541 2.51238 -7.34021
lowerback -3.67968 1.34132 5.01992
upperback -7.88359 1.90551 1.84655
thorax -6.05964 0.723639 -0.907798
lowerneck -7.74262 -4.60247 -2.39154
upperneck 19.1873 -7.48835 7.50424
head 7.54322 -3.10655 2.17846
rclavicle -3.85145e-015 -2.24627e-014
rhumerus -39.1645 37.0823 -98.791
rradius 131.017
rwrist -63.0777
rhand -7.06372 -64.56
rfingers 7.12502
rthumb 18.8095 -266.329
lclavicle -3.85145e-015 -2.24627e-014
lhumerus -53.6492 17.891 75.0251
lradius 89.3176
lwrist 20.6678
lhand -32.6146 -4.4262
lfingers 7.12502
lthumb -5.84218 25.4733
rfemur -2.68467 21.9007 22.7355
rtibia 6.36181
rfoot -16.4398 -27.555
rtoes 3.465
lfemur 6.75314 -41.5526 -16.821
ltibia -5.31143
lfoot -16.3941 47.2796
ltoes 8.2741
460
root 1.27763 17.4424 9.71759 8.37847 2.19959 -7.37619
lowerback -3.56568 1.28046 4.82581
upperback -7.83952 1.83736 2.03246
thorax -6.0907 0.706941 -0.607739
lowerneck -7.18256 -4.44033 -2.33263
upperneck 19.0249 -7.24525 7.43561
head 7.37052 -3.01095 2.18181
rclavicle -5.71506e-016 4.16454e-014
rhumerus -38.0969 37.9166 -97.8799
rradius 132.353
rwrist -62.8541
rhand -6.33992 -64.6586
rfingers 7.12502
rthumb 19.5056 -266.3
lclavicle -5.71506e-016 4.16454e-014
lhumerus -54.0158 18.1125 75.117
lradius 89.3091
lwrist 20.6221
lhand -32.4602 -4.50255
lfingers 7.12502
lthumb -5.69307 25.401
rfemur -2.77326 21.8797 22.6988
rtibia 6.58767
rfoot -16.3727 -27.2533
rtoes 3.48228
lfemur 6.95249 -41.4123 -16.9849
ltibia -5.31354
lfoot -16.6275 47.3959
ltoes 8.66156
461
root 1.29033 17.4426 9.70389 8.25612 1.90679 -7.38243
lowerback -3.65693 1.32341 5.19233
upperback -7.67225 1.86878 1.80367
thorax -5.84219 0.700317 -1.04689
lowerneck -6.45048 -4.36206 -2.14304
upperneck 18.5388 -7.18971 7.77926
head 7.08488 -2.97455 2.28287
rclavicle 1.71452e-015 -1.64991e-014
rhumerus -36.6405 38.2882 -97.1012
rradius 133.582
rwrist -62.6865
rhand -5.60864 -64.7437
rfingers 7.12502
rthumb 20.2085 -266.288
lclavicle 1.71452e-015 -1.64991e-014
lhumerus -53.9683 17.83 74.9571
lradius 89.2386
lwrist 20.6865
lhand -32.5497 -4.31281
lfingers 7.12502
lthumb -5.77951 25.5884
rfemur -2.81965 21.8792 22.6439
rtibia 6.76003
rfoot -16.2617 -27.0102
rtoes 3.07525
lfemur 7.17273 -41.3345 -17.2163
ltibia -5.29098
lfoot -16.8933 47.5388
ltoes 9.10973
462
root 1.3012 17.4425 9.69357 8.16213 1.62939 -7.37119
lowerback -3.66679 1.34042 5.16157
upperback -7.62909 1.88919 1.83289
thorax -5.79059 0.714624 -0.999087
lowerneck -5.57942 -4.32309 -2.06664
upperneck 18.116 -7.10733 7.77764
head 6.78597 -2.96447 2.29573
rclavicle 3.23025e-014 2.44505e-014
rhumerus -35.5131 38.7776 -96.127
rradius 134.805
rwrist -62.7327
rhand -5.03239 -64.3715
rfingers 7.12502
rthumb 20.7623 -266.719
lclavicle 3.23025e-014 2.44505e-014
lhumerus -54.1767 17.7147 75.06
lradius 89.1633
lwrist 20.6666
lhand -32.5941 -4.13723
lfingers 7.12502
lthumb -5.82238 25.7628
rfemur -2.85631 21.8817 22.5657
rtibia 6.88369
rfoot -16.2044 -26.7877
rtoes 2.71682
lfemur 7.37022 -41.2625 -17.4364
ltibia -5.28981
lfoot -17.0509 47.6851
ltoes 9.4492
463
root 1.30972 17.4437 9.68493 8.11045 1.37442 -7.31286
lowerback -3.85472 1.3754 5.08639
upperback -7.52288 1.91585 1.8189
thorax -5.56903 0.737783 -0.966916
lowerneck -4.75006 -4.30254 -1.95602
upperneck 17.7086 -7.0516 7.76307
head 6.50155 -2.96421 2.29579
rclavicle 2.54444e-014 1.59028e-015
rhumerus -34.3015 39.0649 -95.1152
rradius 135.852
rwrist -62.7725
rhand -4.37363 -65.1353
rfingers 7.12502
rthumb 21.3951 -266.026
lclavicle 2.54444e-014 1.59028e-015
lhumerus -54.2084 17.5974 75.1921
lradius 89.0259
lwrist 20.5211
lhand -32.5284 -4.25193
lfingers 7.12502
lthumb -5.75888 25.6498
rfemur -2.92707 21.8012 22.4175
rtibia 6.99328
rfoot -16.0657 -26.5437
rtoes 2.29439
lfemur 7.50629 -41.2274 -17.6605
ltibia -5.30368
lfoot -17.0449 47.881
ltoes 9.471
464
root 1.31767 17.4458 9.67415 8.05536 1.14152 -7.22089
lowerback -4.02985 1.42429 5.03772
upperback -7.37903 1.95812 1.74409
thorax -5.31146 0.766465 -1.01242
lowerneck -4.08063 -4.2774 -1.86766
upperneck 17.4495 -7.03524 7.96101
head 6.30472 -2.96044 2.36096
rclavicle -1.63997e-015 2.98177e-015
rhumerus -33.1354 39.1554 -94.1902
rradius 136.708
rwrist -62.9681
rhand -3.07024 -65.4047
rfingers 7.12502
rthumb 22.6466 -265.904
lclavicle -1.63997e-015 2.98177e-015
lhumerus -54.1097 17.4721 75.3439
lradius 88.901
lwrist 20.4165
lhand -32.5513 -4.50691
lfingers 7.12502
lthumb -5.78098 25.3942
rfemur -3.01122 21.7061 22.236
rtibia 7.108
rfoot -15.8302 -26.3283
rtoes 1.76613
lfemur 7.63084 -41.2096 -17.9097
ltibia -5.32137
lfoot -17.0821 48.0641
ltoes 9.58853
465
root 1.32554 17.4472 9.66267 7.97573 0.969886 -7.22563
lowerback -4.14852 1.43625 5.0648
upperback -7.2399 1.95757 1.72579
thorax -5.09436 0.770598 -1.0423
lowerneck -3.38249 -4.23863 -1.95136
upperneck 17.1311 -6.98417 8.20737
head 6.09003 -2.95091 2.47287
rclavicle 1.65488e-014 1.19271e-015
rhumerus -32.3181 39.3816 -93.5662
rradius 137.405
rwrist -63.3856
rhand -2.09587 -65.3807
rfingers 7.12502
rthumb 23.5814 -266.045
lclavicle 1.65488e-014 1.19271e-015
lhumerus -54.0193 17.4943 75.4652
lradius 88.786
lwrist 20.3844
lhand -32.7189 -4.70297
lfingers 7.12502
lthumb -5.94283 25.1937
rfemur -3.04992 21.6784 22.1983
rtibia 7.20597
rfoot -15.7278 -26.1852
rtoes 1.49074
lfemur 7.71604 -41.0065 -17.9748
ltibia -5.35554
lfoot -16.9847 48.0291
ltoes 9.65506
466
root 1.33296 17.4488 9.65222 7.90555 0.841646 -7.26509
lowerback -4.28688 1.41405 5.07127
upperback -7.09525 1.91249 1.7747
thorax -4.86592 0.755978 -0.990572
lowerneck -2.68228 -4.19064 -2.02827
upperneck 16.9364 -6.91868 8.37976
head 5.91105 -2.93633 2.56084
rclavicle -8.19987e-015 -2.38542e-014
rhumerus -31.7727 39.8487 -93.1469
rradius 137.888
rwrist -63.5326
rhand -1.55304 -65.3915
rfingers 7.12502
rthumb 24.102 -266.102
lclavicle -8.19987e-015 -2.38542e-014
lhumerus -53.9055 17.6792 75.5587
lradius 88.6286
lwrist 20.2733
lhand -32.8835 -4.79975
lfingers 7.12502
lthumb -6.10173 25.0924
rfemur -3.07202 21.6163 22.2023
rtibia 7.27238
rfoot -15.6867 -26.0307
rtoes 1.23709
lfemur 7.70084 -40.6363 -17.9173
ltibia -5.35564
lfoot -16.7194 47.8168
ltoes 9.47743
467
root 1.3389 17.4495 9.64156 7.85404 0.721673 -7.23906
lowerback -4.45947 1.43135 5.01623
upperback -6.92205 1.91609 1.79454
thorax -4.58593 0.769302 -0.933664
lowerneck -2.05947 -4.22887 -2.1422
upperneck 16.7766 -6.96716 8.51958
head 5.76375 -2.97889 2.63524
rclavicle 1.95306e-014 3.97569e-016
rhumerus -31.3504 40.3888 -92.8229
rradius 138.27
rwrist -63.3422
rhand -1.40356 -65.5647
rfingers 7.12502
rthumb 24.2453 -265.948
lclavicle 1.95306e-014 3.97569e-016
lhumerus -53.679 17.814 75.7356
lradius 88.4692
lwrist 20.1609
lhand -33.0895 -4.67937
lfingers 7.12502
lthumb -6.30058 25.2069
rfemur -3.08508 21.6076 22.1303
rtibia 7.28674
rfoot -15.6119 -25.925
rtoes 1.05402
lfemur 7.65932 -40.3488 -17.944
ltibia -5.30403
lfoot -16.6548 47.6374
ltoes 9.47574
468
root 1.34316 17.448 9.63038 7.80955 0.647013 -7.21514
lowerback -4.66622 1.4814 4.98419
upperback -6.72868 1.95878 1.77321
thorax -4.26211 0.800993 -0.930507
lowerneck -1.75403 -4.30642 -2.64479
upperneck 16.9529 -7.14273 9.08437
head 5.81162 -3.06133 2.89398
rclavicle 6.70898e-015 4.81059e-014
rhumerus -30.937 40.9132 -92.5463
rradius 138.625
rwrist -63.3974
rhand -1.51301 -66.1392
rfingers 7.12502
rthumb 24.1404 -265.36
lclavicle 6.70898e-015 4.81059e-014
lhumerus -53.3625 17.822 75.9777
lradius 88.3568
lwrist 20.2277
lhand -33.417 -4.39027
lfingers 7.12502
lthumb -6.61682 25.4864
rfemur -3.08166 21.7023 22.087
rtibia 7.29819
rfoot -15.5874 -25.936
rtoes 0.952895
lfemur 7.62246 -40.179 -17.9718
ltibia -5.25716
lfoot -16.6388 47.5324
ltoes 9.45733
